<?xml version="1.0" encoding="UTF-8"?>
<svg id="Layer_1" data-name="Layer 1" xmlns="http://www.w3.org/2000/svg" viewBox="0 0 512 512">
  <defs>
    <style>
      .cls-1 {
        fill: #d71920;
      }

      .cls-2 {
        fill: #222;
      }

      .cls-3 {
        fill: red;
      }
    </style>
  </defs>
  <path class="cls-2" d="m101.47,250.2c0-35.31-.05-70.61.02-105.92.05-27.44,16.55-50.38,42.09-58.12,5.42-1.64,11.25-2.65,16.9-2.67,51.03-.2,102.06-.23,153.1-.08,31.3.09,57.3,24.55,58.78,55.85.86,18.17.3,36.42.34,54.63.03,13.85.07,27.7-.02,41.54-.05,7.61-4.81,12.74-11.65,12.9-6.18.15-11.35-4.27-12.09-10.44-.19-1.6-.18-3.24-.18-4.86-.01-29.32.03-58.63-.02-87.95-.04-18.33-10.13-32.19-26.7-36.51-3.45-.9-7.14-1.2-10.72-1.21-49.41-.08-98.82-.06-148.23-.05-22.31,0-37.6,15.24-37.63,37.61-.05,45.04-.02,90.07-.02,135.11,0,25.33-.06,50.65.02,75.98.05,17.98,10.65,31.99,27.31,36.06,3.35.82,6.9,1.1,10.37,1.12,23.46.1,46.91,0,70.37.08,9.02.03,14.89,8.59,11.42,16.53-2.03,4.64-5.77,7.32-10.82,7.33-25.33.08-50.68.71-75.98-.19-32.15-1.14-56.42-27.69-56.64-60.46,0-.25,0-.5,0-.75,0-35.18,0-70.36,0-105.54Z"/>
  <path class="cls-2" d="m236.83,166.7c-20.7,0-41.4.06-62.1-.03-9.91-.04-15.81-9.18-11.42-17.45,2.41-4.55,6.43-6.42,11.41-6.45,6.48-.04,12.97-.01,19.45-.01,34.29,0,68.59,0,102.88.01,1.74,0,3.5.02,5.21.29,5.94.97,10.28,6.24,10.08,12.09-.21,6.08-5,11.14-11.17,11.45-4.73.24-9.47.1-14.21.1-16.71,0-33.42,0-50.13,0Z"/>
  <path class="cls-2" d="m236.96,230.34c-20.83,0-41.65.06-62.48-.03-9.01-.04-14.8-7.97-11.83-15.96,1.55-4.16,4.55-6.78,8.96-7.59,1.34-.25,2.72-.35,4.09-.35,40.9-.02,81.81,0,122.71-.04,5.72,0,10.3,1.82,12.83,7.23,3.4,7.28-1.54,15.89-9.57,16.6-3.22.28-6.48.14-9.72.14-18.33,0-36.66,0-54.99,0Z"/>
  <path class="cls-2" d="m202.5,294.01c-9.61,0-19.22.21-28.81-.06-8.68-.25-14.12-8.61-10.88-16.34,1.96-4.7,5.67-7.38,10.73-7.41,19.34-.12,38.67-.17,58.01,0,6.81.06,11.92,5.61,11.84,12.01-.08,6.46-5.15,11.63-12.06,11.77-9.6.19-19.21.05-28.82.05,0,0,0,0,0-.01Z"/>
  <g>
    <g>
      <path class="cls-1" d="m240.84,338.06c.42-3.18.74-6.38,1.29-9.53,3.4-19.45,12.64-35.68,27.4-48.71,12.54-11.07,27.17-17.79,43.75-19.99,20.8-2.76,40.07,1.64,57.67,13.08,9.51,6.18,17.39,14.07,23.7,23.51.18.27.37.54.58.79.05.07.17.09.43.22,0-.61,0-1.13,0-1.65,0-5.25-.03-10.5,0-15.74.03-4.02,2.82-6.92,6.56-6.91,3.75,0,6.52,2.91,6.54,6.94.03,6.29.07,12.57,0,18.86-.15,11.87-9.15,20.9-21.03,21.08-6.56.09-13.12.05-19.68,0-3.99-.02-6.87-2.87-6.83-6.63.04-3.68,2.9-6.44,6.84-6.46,5.79-.04,11.58-.01,17.75-.01-.98-1.52-1.76-2.85-2.66-4.11-10.97-15.49-25.71-25.47-44.31-29.18-20.32-4.05-39.11.03-55.86,12.36-14.48,10.66-23.84,24.84-27.45,42.49-4.15,20.32-.24,39.11,11.96,55.95,10.66,14.71,24.97,24.04,42.77,27.89,6.23,1.35,12.53,1.8,18.9,1.39,1.35-.09,2.75-.12,4.06.14,3.13.64,5.24,3.61,5,6.76-.24,3.17-2.74,5.72-5.92,6.03-1.08.11-2.16.22-3.24.33h-9.18c-2.22-.27-4.44-.49-6.64-.8-16.56-2.34-31.19-8.95-43.73-20.02-14.76-13.03-23.99-29.25-27.39-48.7-.55-3.16-.87-6.35-1.29-9.53,0-3.28,0-6.56,0-9.84Z"/>
      <path class="cls-3" d="m329.17,428.69h-9.48c-.7-.1-1.39-.17-2.09-.25-1.5-.17-3.06-.35-4.59-.57-16.98-2.4-31.99-9.27-44.63-20.43-15.12-13.35-24.52-30.07-27.95-49.7-.38-2.2-.66-4.44-.92-6.6-.12-1-.25-2-.38-3l-.02-.23.02-10.07c.13-1,.26-2.01.38-3.02.26-2.16.54-4.39.92-6.59,3.43-19.64,12.84-36.36,27.96-49.71,12.81-11.31,27.84-18.17,44.67-20.41,21.11-2.81,40.91,1.69,58.84,13.34,8.52,5.54,15.92,12.56,22.02,20.89v-1.4c0-3.64-.01-7.27.01-10.91.03-4.93,3.59-8.63,8.28-8.63h.02c4.69.01,8.24,3.74,8.27,8.67v1.16c.04,5.81.07,11.81,0,17.73-.16,12.81-9.94,22.61-22.75,22.79-6.21.09-12.51.05-18.6.01h-1.11c-2.44-.02-4.66-.92-6.25-2.53-1.51-1.54-2.33-3.62-2.31-5.86.05-4.63,3.73-8.15,8.56-8.18,4.05-.03,8.09-.02,12.27-.02h2.34c-.3-.47-.61-.93-.92-1.37-10.87-15.35-25.42-24.93-43.23-28.48-19.91-3.97-38.24.09-54.49,12.06-14.3,10.53-23.31,24.47-26.77,41.44-4.07,19.92-.14,38.28,11.67,54.58,10.37,14.31,24.41,23.46,41.73,27.21,5.99,1.3,12.19,1.75,18.42,1.35,1.45-.09,3-.13,4.52.18,3.95.81,6.7,4.5,6.39,8.59-.3,4.02-3.45,7.23-7.47,7.63l-3.32.34Zm-9.17-3.47h8.99l3.15-.32c2.35-.23,4.18-2.1,4.36-4.44.17-2.31-1.42-4.48-3.62-4.93-1.13-.23-2.4-.19-3.61-.11-6.55.42-13.07-.06-19.38-1.42-18.18-3.94-32.92-13.55-43.81-28.57-12.41-17.12-16.53-36.4-12.26-57.31,3.64-17.84,13.1-32.49,28.12-43.54,17.07-12.57,36.33-16.83,57.23-12.66,18.72,3.73,33.99,13.78,45.39,29.88.63.88,1.19,1.79,1.79,2.75.29.46.59.94.91,1.43l1.72,2.68h-8.68c-4.16-.01-8.2-.02-12.24.01-2.98.02-5.08,1.97-5.11,4.75-.02,1.33.44,2.5,1.31,3.39.93.95,2.28,1.48,3.79,1.49h1.11c6.08.04,12.36.08,18.53,0,10.88-.16,19.19-8.48,19.32-19.36.07-5.88.04-11.87.01-17.67v-1.16c-.02-3.06-2-5.2-4.81-5.21h-.01c-2.81,0-4.79,2.13-4.81,5.19-.02,3.63-.02,7.26-.01,10.88v9.29s-2.5-1.24-2.5-1.24c-.07-.03-.12-.05-.16-.07-.19-.08-.56-.24-.86-.62-.24-.3-.46-.6-.67-.92-6.23-9.31-14.03-17.06-23.2-23.01-17.22-11.19-36.23-15.5-56.5-12.81-16.14,2.14-30.55,8.73-42.83,19.57-14.52,12.82-23.55,28.87-26.84,47.71-.37,2.11-.64,4.3-.9,6.41-.12.98-.24,1.96-.37,2.94v9.61c.13.97.25,1.95.37,2.92.26,2.12.53,4.31.9,6.43,3.29,18.83,12.32,34.88,26.83,47.7,12.12,10.7,26.53,17.3,42.82,19.6,1.49.21,3.02.38,4.5.55.67.08,1.34.15,2,.23Z"/>
    </g>
    <g>
      <path class="cls-1" d="m331.37,316.74c0,8.36-.05,16.73.03,25.09.02,2.64-.82,4.73-2.69,6.58-8.23,8.16-16.42,16.36-24.59,24.57-2.1,2.11-4.47,3.13-7.4,2.15-4.2-1.41-5.76-6.49-3.12-10.05.45-.61,1-1.16,1.54-1.7,7.18-7.19,14.35-14.4,21.58-21.55,1.08-1.07,1.57-2.11,1.57-3.68-.07-15.63-.04-31.26-.04-46.89,0-3.44,1.53-5.87,4.26-6.89,4.34-1.6,8.78,1.51,8.83,6.3.07,6.12.02,12.24.02,18.36,0,2.57,0,5.14,0,7.71Z"/>
      <path class="cls-3" d="m298.9,377.24c-.89,0-1.8-.16-2.73-.47-2.53-.85-4.43-2.79-5.22-5.33-.8-2.55-.33-5.25,1.27-7.4.54-.73,1.19-1.37,1.7-1.89l3.77-3.78c5.83-5.84,11.85-11.88,17.82-17.78.79-.78,1.06-1.4,1.05-2.44-.06-13.2-.05-26.62-.04-39.6v-7.3c0-4.14,1.97-7.25,5.4-8.51,2.58-.95,5.32-.62,7.54.9,2.28,1.57,3.6,4.13,3.64,7.01.05,4.29.04,8.65.03,12.87,0,1.84,0,3.68,0,5.51v7.71c0,2.33,0,4.67,0,7,0,5.93-.02,12.05.04,18.07.03,3.1-1.02,5.66-3.2,7.83-7.09,7.03-14.67,14.6-24.58,24.56-2.01,2.02-4.17,3.04-6.45,3.04Zm25.95-91.56c-.57,0-1.16.1-1.73.32-2.58.96-3.13,3.39-3.13,5.26v7.3c-.01,12.97-.02,26.39.04,39.58,0,1.97-.63,3.49-2.08,4.92-5.96,5.89-11.98,11.93-17.8,17.76l-3.77,3.78c-.46.46-.98.98-1.37,1.51-.93,1.25-1.2,2.82-.74,4.29.46,1.46,1.56,2.58,3.02,3.07,2.02.68,3.75.15,5.61-1.73,9.92-9.96,17.5-17.54,24.6-24.58,1.53-1.51,2.2-3.16,2.18-5.33-.06-6.04-.05-12.18-.04-18.11,0-2.33,0-4.66,0-6.99v-7.71c0-1.84,0-3.68,0-5.52,0-4.21.02-8.55-.03-12.82-.02-1.74-.8-3.27-2.13-4.19-.79-.54-1.7-.82-2.63-.82Z"/>
    </g>
    <g>
      <path class="cls-1" d="m356.86,420.21c-2.99-.22-5.46-2.19-6.23-5.08-.73-2.75.44-5.7,3.01-7.16,2.13-1.21,4.33-2.32,6.57-3.32,3.2-1.42,6.82-.11,8.41,2.92,1.63,3.11.6,6.87-2.52,8.67-2.12,1.22-4.34,2.29-6.57,3.31-.82.38-1.78.44-2.67.65Z"/>
      <path class="cls-3" d="m356.99,421.96l-.26-.02c-3.77-.28-6.82-2.77-7.78-6.37-.95-3.56.63-7.31,3.84-9.11,2.24-1.27,4.5-2.41,6.72-3.39,4.03-1.79,8.61-.2,10.65,3.7,2.1,4,.73,8.72-3.19,10.98-2.22,1.28-4.54,2.38-6.71,3.39-.76.35-1.55.49-2.24.62-.26.05-.52.09-.77.15l-.26.06Zm5.89-16.14c-.66,0-1.33.14-1.97.42-2.11.94-4.27,2.03-6.42,3.24-1.83,1.03-2.72,3.17-2.19,5.2.55,2.06,2.28,3.52,4.44,3.77.22-.04.44-.08.66-.12.53-.09,1.04-.19,1.4-.35,2.1-.97,4.33-2.03,6.43-3.24,2.27-1.31,3.06-4.04,1.85-6.35-.86-1.63-2.48-2.56-4.19-2.56Z"/>
    </g>
    <g>
      <path class="cls-1" d="m400.94,352.99c3.67-.05,6.87,3.32,6.26,7.17-.44,2.78-1.18,5.55-2.1,8.22-1.06,3.04-4.27,4.5-7.62,3.8-2.82-.59-5.19-3.35-4.78-6.36.43-3.15,1.28-6.31,2.38-9.3.88-2.38,3.1-3.41,5.86-3.52Z"/>
      <path class="cls-3" d="m399.17,374.08c-.67,0-1.35-.07-2.05-.22-3.9-.82-6.66-4.54-6.14-8.29.42-3.11,1.25-6.36,2.47-9.66,1.05-2.85,3.68-4.5,7.42-4.66h.05s.07,0,.1,0c2.29,0,4.49,1.02,6.04,2.81,1.54,1.77,2.22,4.09,1.86,6.37-.42,2.7-1.16,5.57-2.18,8.52-1.11,3.2-4.08,5.14-7.57,5.14Zm1.82-19.36c-3.46.16-4.08,1.83-4.28,2.39-1.13,3.07-1.9,6.07-2.29,8.93-.29,2.16,1.53,4.03,3.42,4.43,2.58.54,4.89-.55,5.62-2.66.96-2.76,1.64-5.42,2.03-7.92.2-1.28-.17-2.54-1.05-3.56-.88-1.01-2.15-1.61-3.42-1.61-.01,0-.02,0-.03,0Z"/>
    </g>
    <g>
      <path class="cls-1" d="m393.79,389.49c-.04.3.02.9-.21,1.37-1.82,3.65-4.15,6.97-7.6,9.18-2.42,1.55-5.63.76-7.61-1.37-1.97-2.12-2.46-5.33-.82-7.71,1.6-2.33,3.4-4.56,5.36-6.59,1.92-1.99,4.43-2.25,6.97-1.22,2.46,1,3.94,3.4,3.91,6.34Z"/>
      <path class="cls-3" d="m383.15,402.59c-2.16,0-4.38-.95-6.05-2.74-2.63-2.83-3.04-6.89-.98-9.87,1.72-2.49,3.58-4.79,5.54-6.81,2.3-2.39,5.54-2.98,8.88-1.62,3.12,1.27,5.03,4.32,4.99,7.97l-.02.34c-.01.41-.03,1.11-.37,1.78-2.31,4.61-4.92,7.75-8.22,9.87-1.14.73-2.45,1.09-3.77,1.09Zm3.92-18.3c-1.11,0-2.08.43-2.91,1.28-1.83,1.89-3.57,4.04-5.18,6.37-1.11,1.6-.83,3.93.67,5.54,1.51,1.63,3.83,2.1,5.4,1.09,2.75-1.77,4.97-4.47,6.99-8.5,0-.02,0-.22,0-.34,0-.12,0-.24.02-.34,0-2.19-1.05-3.92-2.83-4.64-.77-.31-1.49-.47-2.16-.47Z"/>
    </g>
  </g>
</svg>