<?xml version="1.0" encoding="UTF-8"?>
<svg id="Layer_1" data-name="Layer 1" xmlns="http://www.w3.org/2000/svg" viewBox="0 0 512 512">
  <defs>
    <style>
      .cls-1 {
        fill: #d71920;
      }

      .cls-2 {
        fill: #222;
      }
    </style>
  </defs>
  <path class="cls-2" d="m421.5,142.42c-.01-16.95-12.92-29.85-30.03-29.99-6.58-.06-13.27-.04-19.73-.03-2.93,0-5.85.02-8.79.01h-1.11c0-.97,0-1.88-.02-2.78-.23-10.52-8.51-18.82-18.85-18.88h-.12c-10.47,0-18.8,8.32-19,19-.02.83-.02,1.65-.02,2.47h-48.84c0-.98,0-1.94-.02-2.91-.32-10.32-8.57-18.47-18.8-18.55-.05,0-.1,0-.15,0-10.37,0-18.7,8.14-19,18.6-.03.97-.03,1.94-.02,2.88h-48.79c-.01-4.66-.44-9.37-3.67-13.62-3.94-5.2-9.17-7.84-15.54-7.85h-.02c-4.53,0-8.66,1.57-12.28,4.66-5.66,4.84-6.73,11.1-6.6,16.99-2.5,0-4.98,0-7.43,0-7.52-.01-14.62-.02-21.84.02-17.3.1-30.35,13.16-30.36,30.37-.04,85.86-.04,169.37,0,248.21,0,17.21,12.99,30.2,30.18,30.21,44.9.02,90.13.04,135.35.04s90.44-.01,135.35-.04c16.89,0,30.13-13.15,30.14-29.91.07-80.69.07-164.43,0-248.89Zm-16.25,51.43v195.4c0,10.59-5.12,15.73-15.65,15.73-89.07,0-178.14,0-267.22,0-10.38,0-15.65-5.29-15.65-15.73v-195.4s298.51,0,298.51,0Zm-233.38-63.28c0,3.54.01,7.08-.02,10.61-.02,1.69-.5,3.7-2.7,3.7h-.01c-2.22,0-2.69-2.03-2.69-3.73-.03-10.28-.03-20.52,0-30.46,0-1.68.48-3.69,2.7-3.69h.01c1.77,0,2.68,1.26,2.7,3.74.03,3.55.02,7.09.02,10.64v4.58c0,1.53,0,3.07,0,4.6Zm-21.68,12.08c.16,6.02,3.04,11.47,7.91,14.96,4.89,3.5,11,4.47,16.76,2.68,7.77-2.42,13.1-9.58,13.25-17.8.07-3.74.05-7.56.04-11.26,0-.8,0-1.6,0-2.4h48.86c0,.78,0,1.56-.01,2.34-.02,3.73-.04,7.59.04,11.41.23,10.33,8.48,18.49,18.78,18.58.05,0,.11,0,.16,0,10.42,0,18.74-8.14,18.97-18.6.09-3.75.07-7.4.04-11.27,0-.81,0-1.62-.01-2.44h48.85c0,.26,0,.52,0,.77-.01,2.77-.02,5.64.03,8.49,0,.48.01.95.02,1.43.02,2.23.03,4.53.54,6.83,2.09,9.48,10.92,15.79,20.55,14.69,9.38-1.08,16.61-9.01,16.83-18.45.09-3.73.07-7.41.04-11.3,0-.88,0-1.76-.01-2.65h8.59c2.19,0,4.37,0,6.56-.01,4.84-.02,9.85-.03,14.76.04,7.31.11,13.19,5.46,13.37,12.2.25,9.04.19,18.3.14,27.25-.02,3.01-.04,6.03-.04,9.06H106.79c0-3.02-.02-6.03-.04-9.03-.05-8.98-.1-18.26.13-27.32.16-6.34,5.7-11.86,12.09-12.05,7.75-.23,15.39-.18,23.47-.13,2.56.02,5.13.03,7.72.04,0,.84,0,1.68-.02,2.51-.02,3.75-.05,7.62.05,11.43Zm195.36-12.05c0,3.54.02,7.2-.02,10.79-.01,1.29-.38,3.45-2.65,3.49-.72,0-1.34-.19-1.78-.62-.62-.6-.96-1.66-.97-2.99-.04-10.91-.04-20.98,0-30.79,0-1.56.47-3.43,2.65-3.47.03,0,.05,0,.08,0,.72,0,1.27.2,1.69.61.62.6.96,1.67.98,3.01.04,3.54.03,7.14.02,10.62,0,1.53,0,3.06,0,4.59s0,3.17,0,4.76Zm-86.84.17c0,3.46.01,6.92-.02,10.39-.02,1.7-.5,3.72-2.71,3.72h0c-2.22,0-2.69-2.02-2.7-3.71-.03-10.11-.03-20.35,0-30.46,0-1.69.48-3.7,2.7-3.7h0c2.21,0,2.69,2.02,2.7,3.72.03,3.62.02,7.24.02,10.86v4.69s0,4.49,0,4.49Z"/>
  <path class="cls-1" d="m339.63,253.93c-1.68-4.7-6.19-5.36-7.67-5.58-3.27-.48-6.53-.99-9.79-1.5-4.47-.7-9.09-1.43-13.67-2.05-.87-.12-1.1-.24-1.57-1.26-1.91-4.16-3.89-8.36-5.8-12.42-1.56-3.31-3.12-6.61-4.65-9.93-.67-1.44-2.68-5.79-7.91-5.79-.04,0-.08,0-.12,0-5.18.06-7.14,4.32-7.88,5.92-1.19,2.58-2.44,5.19-3.64,7.71-2.1,4.39-4.27,8.92-6.22,13.49-.76,1.78-1.52,2.34-3.54,2.61-3.92.52-7.88,1.14-11.71,1.74-3.41.53-6.93,1.08-10.39,1.56-3.96.54-6.52,2.46-7.62,5.68-1.6,4.69,1.68,8.02,2.76,9.12,1.81,1.83,3.6,3.68,5.39,5.52,3.58,3.69,7.29,7.51,11.07,11.15,1.26,1.21,1.51,2.14,1.15,4.16-1.09,6.04-2.06,12.08-3,17.93-.36,2.23-.71,4.44-1.07,6.61l-.03.3c-.18,3.49,1.22,6.54,3.76,8.15,2.44,1.56,5.61,1.58,8.47.06,7.51-3.98,14.42-7.8,21.11-11.66,1.26-.73,1.81-.71,3.13.05,4.07,2.36,8.25,4.66,12.29,6.87,2.42,1.33,4.85,2.66,7.26,4.01,1.34.75,3.42,1.92,5.84,1.92,1.34,0,2.79-.36,4.26-1.35,4.46-2.97,3.67-7.7,3.29-9.98-.43-2.58-.85-5.17-1.26-7.75-.8-5.02-1.63-10.21-2.59-15.3-.35-1.86-.06-2.78,1.3-4.1,3.68-3.58,7.31-7.31,10.82-10.92,1.79-1.84,3.58-3.69,5.39-5.52,1.25-1.27,4.57-4.63,2.85-9.44Zm-36.97,28.98c.85,3.77,1.41,7.66,2.01,11.78l.05.31c-3.34-1.8-6.51-3.5-9.53-5.37-4.52-2.81-8.72-2.8-13.21.02-2.99,1.87-6.15,3.57-9.5,5.36.02-.13.04-.26.06-.39.69-4.44,1.35-8.63,2.13-12.8.77-4.09-.25-7.31-3.12-9.85-3.22-2.86-6.43-5.73-9.63-8.6l-1.06-.95c.38-.07.76-.13,1.13-.2,3.35-.6,6.52-1.17,9.72-1.37,6.56-.41,10.65-3.46,12.89-9.6,1.05-2.87,2.46-5.71,3.96-8.71.02.03.03.07.05.1,1.8,3.78,3.51,7.35,5.08,10.94,1.78,4.07,4.72,6.29,8.98,6.8,3.9.46,7.81,1.1,11.96,1.77.17.03.35.06.53.09-.1.1-.19.2-.29.3-2.86,2.99-5.57,5.82-8.39,8.49-3.64,3.44-4.84,7.22-3.8,11.88Z"/>
  <path class="cls-2" d="m152.73,369.77c-3.39,0-6.78.06-10.17-.02-3.82-.09-5.89-2.1-5.93-5.88-.08-6.88-.08-13.77,0-20.65.04-3.81,2.08-5.88,5.88-5.92,6.89-.08,13.79-.08,20.69,0,3.81.04,5.89,2.09,5.94,5.87.08,6.88.08,13.77,0,20.65-.04,3.81-2.1,5.84-5.89,5.93-3.5.09-7.01.02-10.51.02Zm5.38-10.99v-10.46h-10.42v10.46h10.42Z"/>
  <path class="cls-2" d="m206.81,261.4c-3.39,0-6.78.08-10.17-.02-3.61-.11-5.69-2.13-5.74-5.73-.09-7-.09-13.99,0-20.99.05-3.61,2.12-5.68,5.73-5.73,7.01-.09,14.02-.09,21.03,0,3.61.05,5.69,2.12,5.74,5.72.09,7,.09,13.99,0,20.99-.05,3.6-2.13,5.63-5.73,5.74-3.61.1-7.23.02-10.85.02Zm5.54-10.99v-10.42h-10.46v10.42h10.46Z"/>
  <path class="cls-2" d="m370.31,228.91c3.39,0,6.78-.08,10.17.02,3.6.1,5.69,2.13,5.73,5.73.09,7,.09,13.99,0,20.99-.05,3.59-2.14,5.68-5.74,5.72-7.01.09-14.02.09-21.03,0-3.61-.05-5.68-2.13-5.73-5.73-.09-7-.09-13.99,0-20.99.05-3.6,2.12-5.62,5.73-5.72,3.61-.1,7.23-.02,10.85-.02Zm4.96,11.09h-10.56v10.38h10.56v-10.38Z"/>
  <path class="cls-2" d="m370.01,337.27c3.39,0,6.78-.05,10.17.01,3.86.08,5.99,2.04,6.04,5.78.09,7,.09,13.99,0,20.99-.05,3.58-2.15,5.64-5.77,5.69-7.01.09-14.02.09-21.03,0-3.59-.05-5.65-2.15-5.69-5.76-.09-7-.09-13.99,0-20.99.05-3.59,2.14-5.59,5.77-5.69,3.5-.09,7.01-.02,10.51-.02Zm5.21,21.52v-10.48h-10.43v10.48h10.43Z"/>
  <path class="cls-2" d="m315.73,337.27c3.39,0,6.78-.05,10.17.01,3.86.08,6,2.03,6.05,5.77.09,7,.09,13.99,0,20.99-.05,3.59-2.15,5.65-5.76,5.7-7.01.09-14.02.09-21.03,0-3.6-.05-5.66-2.14-5.7-5.75-.09-7-.09-13.99,0-20.99.05-3.59,2.13-5.6,5.76-5.7,3.5-.1,7.01-.02,10.51-.03Zm-5.31,21.49h10.5v-10.42h-10.5v10.42Z"/>
  <path class="cls-2" d="m136.6,299.31c0-3.5-.08-7,.02-10.49.1-3.6,2.14-5.66,5.76-5.7,7.01-.09,14.02-.09,21.03,0,3.59.05,5.67,2.13,5.72,5.74.09,7,.09,13.99,0,20.99-.05,3.59-2.15,5.66-5.76,5.71-7.01.09-14.02.09-21.03,0-3.6-.05-5.62-2.14-5.72-5.75-.1-3.5-.02-7-.02-10.49Zm11.09-5.25v10.42h10.43v-10.42h-10.43Z"/>
  <path class="cls-2" d="m223.42,299.34c0,3.5.08,7-.02,10.49-.11,3.59-2.14,5.68-5.75,5.72-7.01.09-14.02.09-21.03,0-3.61-.05-5.68-2.13-5.73-5.73-.09-7-.09-13.99,0-20.99.05-3.6,2.12-5.67,5.74-5.72,7.01-.09,14.02-.09,21.03,0,3.6.05,5.63,2.12,5.74,5.73.1,3.5.02,7,.02,10.49Zm-11.06,5.35v-10.52h-10.36v10.52h10.36Z"/>
  <path class="cls-2" d="m369.75,315.59c-3.28,0-6.56.05-9.83-.01-4.06-.07-6.15-2.03-6.19-5.97-.08-6.88-.08-13.77,0-20.65.05-3.78,2.13-5.8,5.96-5.85,6.89-.07,13.79-.08,20.69,0,3.78.05,5.82,2.13,5.86,5.95.08,6.88.08,13.77,0,20.65-.05,3.77-2.14,5.77-5.97,5.86-3.5.08-7.01.02-10.51.02Zm-5.13-11.05h10.54v-10.34h-10.54v10.34Z"/>
  <path class="cls-2" d="m245.15,353.18c0-3.39-.08-6.77.02-10.16.1-3.61,2.12-5.68,5.73-5.72,7.01-.09,14.02-.09,21.03,0,3.61.05,5.69,2.12,5.74,5.72.09,7,.09,13.99,0,20.99-.05,3.6-2.13,5.68-5.73,5.73-7.01.09-14.02.09-21.03,0-3.61-.05-5.64-2.12-5.74-5.72-.1-3.61-.02-7.22-.02-10.83Zm10.98,5.6h10.54v-10.46h-10.54v10.46Z"/>
  <path class="cls-2" d="m190.88,353.55c0-3.5-.07-7,.02-10.49.1-3.62,2.1-5.71,5.7-5.76,7.01-.1,14.02-.09,21.03,0,3.62.04,5.72,2.1,5.77,5.68.1,7,.09,13.99,0,20.99-.05,3.61-2.11,5.72-5.7,5.77-7.01.1-14.02.1-21.03,0-3.74-.05-5.66-2.18-5.8-6.03,0-.11,0-.23,0-.34,0-3.27,0-6.55,0-9.82Zm21.54-5.27h-10.48v10.4h10.48v-10.4Z"/>
</svg>