<?xml version="1.0" encoding="UTF-8"?>
<svg id="Layer_1" data-name="Layer 1" xmlns="http://www.w3.org/2000/svg" viewBox="0 0 512 512">
  <defs>
    <style>
      .cls-1 {
        fill: #d71920;
      }

      .cls-2 {
        fill: #222;
      }
    </style>
  </defs>
  <path class="cls-2" d="m94.5,389.16c2.33-9.24,4.73-18.46,6.98-27.72,13.44-55.27,26.86-110.55,40.23-165.84.46-1.9,1-2.83,3.21-2.83,49.62.06,99.24.05,148.86.05.51,0,1.02.07,2.42.18-2.74,2.23-5.2,3.79-7.1,5.86-6.14,6.7-13.55,8.25-22.52,8.13-36.37-.48-72.75-.2-109.12-.2-1.25,0-2.5,0-4.06,0-13.69,56.45-27.35,112.79-41.08,169.41h278.21c-1.41-5.92-2.76-11.71-4.16-17.47-11.26-46.41-22.49-92.82-33.85-139.2-.63-2.57-.1-4.02,1.91-5.53,3.09-2.33,5.97-4.93,9.36-7.77,14.92,61.53,29.73,122.65,44.63,184.14h-4.52c-102.08,0-204.16,0-306.24,0-1.05,0-2.1.03-3.15.04,0-.42,0-.84,0-1.26Z"/>
  <path class="cls-1" d="m417.5,150.7c-1.69,4.73-5.79,7.28-9.33,10.34-1.98,1.71-4,3.38-6.26,5.3-8.99-10.64-17.9-21.19-27.16-32.15,4.77-3.83,9.2-7.82,14.07-11.17,3.5-2.41,8.43-1.73,11.31,1.44,5.49,6.06,10.63,12.44,15.84,18.74.71.86,1.03,2.04,1.53,3.08v4.42Z"/>
  <path class="cls-1" d="m287.27,263.18c-9.09-10.77-18.02-21.34-27.07-32.07,36.46-30.79,72.72-61.43,109.35-92.36,8.99,10.62,17.91,21.17,27.1,32.03-36.47,30.8-72.85,61.54-109.38,92.39Z"/>
  <path class="cls-2" d="m145.69,344.65c3.15-14.95,6.23-29.64,9.41-44.3.16-.73,1.27-1.78,1.94-1.78,17.55-.05,35.1.02,52.65.08.09,0,.18.11.6.39-.96,5.91-1.94,11.99-2.95,18.06-1.42,8.49-2.92,16.97-4.29,25.47-.26,1.59-.69,2.4-2.51,2.39-17.87-.06-35.75-.04-53.62-.06-.31,0-.61-.12-1.23-.25Zm47.57-11.12c1.34-7.95,2.66-15.76,4-23.74h-32.86c-1.66,7.92-3.31,15.76-4.99,23.74h33.84Z"/>
  <path class="cls-2" d="m172.65,266.69c10.38,0,20.36.03,30.34-.08.65,0,1.83-1.17,1.83-1.8.03-3.91,2.19-6,5.48-7.53,2.33-1.09,4.47-2.55,7.22-4.14-1.33,7.88-2.52,15.11-3.84,22.32-.11.62-1.16,1.54-1.78,1.54-17.13.03-34.26-.05-51.38-.12-.09,0-.17-.11-.61-.43,2.98-14.16,5.99-28.5,9.03-42.93h52.06c-.85.79-1.3,1.23-1.78,1.64-.24.2-.56.3-.8.49-8.98,6.83-18.98,9.79-30.29,8.37-3.4-.43-6.91-.07-10.64-.07-1.59,7.51-3.15,14.86-4.82,22.73Z"/>
  <path class="cls-1" d="m254.78,237.33c8.61,10.2,16.85,19.96,25.45,30.14-14.17,3.44-27.93,6.78-42.41,10.29,5.75-13.71,11.23-26.77,16.96-40.43Z"/>
  <path class="cls-2" d="m230.22,241.82c-12.56,7.38-24.67,14.5-36.94,21.7-4.27-4.51-8.44-8.91-12.85-13.57,2.47-1.53,4.75-2.95,7.22-4.49,2.46,2.33,4.89,4.62,7.44,7.03,8.27-4.79,16.51-9.37,24.54-14.3,2.76-1.69,4.76-2.04,6.97.57.93,1.1,2.21,1.89,3.62,3.05Z"/>
</svg>