<?xml version="1.0" encoding="UTF-8"?>
<svg id="Layer_1" data-name="Layer 1" xmlns="http://www.w3.org/2000/svg" viewBox="0 0 512 512">
  <defs>
    <style>
      .cls-1 {
        fill: #d71920;
      }

      .cls-2 {
        fill: #222;
      }
    </style>
  </defs>
  <path class="cls-2" d="m104.24,243.18c0-35.31-.05-70.61.02-105.92.05-27.44,16.55-50.38,42.09-58.12,5.42-1.64,11.25-2.65,16.9-2.67,51.03-.2,102.06-.23,153.1-.08,31.3.09,57.3,24.55,58.78,55.85.86,18.17.3,36.42.34,54.63.03,13.85.07,27.7-.02,41.54-.05,7.61-4.81,12.74-11.65,12.9-6.18.15-11.35-4.27-12.09-10.44-.19-1.6-.18-3.24-.18-4.86-.01-29.32.03-58.63-.02-87.95-.04-18.33-10.13-32.19-26.7-36.51-3.45-.9-7.14-1.2-10.72-1.21-49.41-.08-98.82-.06-148.23-.05-22.31,0-37.6,15.24-37.63,37.61-.05,45.04-.02,90.07-.02,135.11,0,25.33-.06,50.65.02,75.98.05,17.98,10.65,31.99,27.31,36.06,3.35.82,6.9,1.1,10.37,1.12,23.46.1,46.91,0,70.37.08,9.02.03,14.89,8.59,11.42,16.53-2.03,4.64-5.77,7.32-10.82,7.33-25.33.08-50.68.71-75.98-.19-32.15-1.14-56.42-27.69-56.64-60.46,0-.25,0-.5,0-.75,0-35.18,0-70.36,0-105.54Z"/>
  <path class="cls-1" d="m332.67,350.6c40.11-1.59,75.06,32.02,75.11,72.22,0,7.26-5.01,12.74-11.78,12.86-6.67.12-11.93-4.89-12.09-12.06-.62-26.93-20.29-45.63-42.11-48.48-29.9-3.91-54.73,17.08-56.36,47.19-.09,1.73-.15,3.53-.66,5.16-1.7,5.45-7.24,8.87-12.82,8.12-6.05-.81-10.79-5.8-10.35-12.21.49-7.04,1.22-14.24,3.22-20.97,8.99-30.24,35.9-50.56,67.84-51.83Z"/>
  <path class="cls-1" d="m293.38,290.88c0-22.78,18.48-41.35,41.1-41.32,23.11.03,41.51,18.59,41.43,41.76-.09,22.44-18.63,40.91-41.11,40.95-22.88.04-41.42-18.5-41.41-41.39Zm58.56-.33c-.17-9.57-8.17-17.26-17.66-16.98-9.67.29-17.06,8.02-16.92,17.71.14,9.52,8.15,17.24,17.65,17.03,9.55-.22,17.09-8.13,16.92-17.76Z"/>
  <path class="cls-2" d="m239.6,159.68c-20.7,0-41.4.06-62.1-.03-9.91-.04-15.81-9.18-11.42-17.45,2.41-4.55,6.43-6.42,11.41-6.45,6.48-.04,12.97-.01,19.45-.01,34.29,0,68.59,0,102.88.01,1.74,0,3.5.02,5.21.29,5.94.97,10.28,6.24,10.08,12.09-.21,6.08-5,11.14-11.17,11.45-4.73.24-9.47.1-14.21.1-16.71,0-33.42,0-50.13,0Z"/>
  <path class="cls-2" d="m239.73,223.32c-20.83,0-41.65.06-62.48-.03-9.01-.04-14.8-7.97-11.83-15.96,1.55-4.16,4.55-6.78,8.96-7.59,1.34-.25,2.72-.35,4.09-.35,40.9-.02,81.81,0,122.71-.04,5.72,0,10.3,1.82,12.83,7.23,3.4,7.28-1.54,15.89-9.57,16.6-3.22.28-6.48.14-9.72.14-18.33,0-36.66,0-54.99,0Z"/>
  <path class="cls-2" d="m205.27,286.99c-9.61,0-19.22.21-28.81-.06-8.68-.25-14.12-8.61-10.88-16.34,1.96-4.7,5.67-7.38,10.73-7.41,19.34-.12,38.67-.17,58.01,0,6.81.06,11.92,5.61,11.84,12.01-.08,6.46-5.15,11.63-12.06,11.77-9.6.19-19.21.05-28.82.05,0,0,0,0,0-.01Z"/>
</svg>