<?xml version="1.0" encoding="UTF-8"?>
<svg id="Layer_1" data-name="Layer 1" xmlns="http://www.w3.org/2000/svg" viewBox="0 0 512 512">
  <defs>
    <style>
      .cls-1 {
        fill: #d71920;
      }

      .cls-2 {
        fill: #222;
      }
    </style>
  </defs>
  <path class="cls-2" d="m255.88,443.34c-30.34.21-60.29-2.91-89.64-10.76-17.88-4.79-35.22-11.01-50.68-21.5-9.95-6.75-18.68-14.7-22.72-26.5-3.31-9.67-2.1-19.02,3.08-27.75,7.93-13.37,20.39-21.36,33.9-28,16.82-8.28,34.61-13.6,52.99-17.04,2.1-.39,2.38-1.12.76-2.79-5.22-5.36-10.6-10.56-15.81-15.93-19.3-19.87-31.11-43.41-34.56-71-3.68-29.49,2.24-56.92,18.24-81.98,17.95-28.11,43.25-46.55,75.68-53.98,37.27-8.54,72.01-1.61,102.76,21.48,25.86,19.43,41.92,45.43,47.4,77.4,5.59,32.59-.91,62.85-19.23,90.48-7.05,10.63-16.14,19.44-25.12,28.35-1.64,1.63-3.39,3.15-5.01,4.81-.52.53-1.14,1.4-1.02,1.97.11.51,1.13,1.04,1.83,1.16,13.89,2.55,27.38,6.52,40.51,11.64,14.8,5.77,28.75,13.04,39.78,24.81,7.39,7.88,11.93,17.03,11.15,28.22-.68,9.67-5.38,17.41-11.8,24.25-8.7,9.26-19.56,15.37-30.94,20.62-14.62,6.74-30.04,10.94-45.69,14.51-21.48,4.91-49.98,7.79-75.85,7.54Zm-3.44-11.1c21.67-.08,39.44-1.22,57.09-3.85,23.26-3.46,46.03-8.77,67.23-19.39,9.12-4.57,17.74-9.86,24.72-17.49,9.6-10.48,10.1-21.85,1.32-33.04-6.53-8.31-15.19-13.87-24.44-18.67-18.8-9.76-39.09-14.68-59.7-18.61-1.99-.38-3.31.1-4.72,1.52-17.6,17.68-35.25,35.31-52.92,52.93-4.18,4.16-6.45,4.19-10.58.08-17.36-17.29-34.73-34.57-51.94-52.01-2.18-2.21-4.24-2.89-7.07-2.33-16.71,3.28-33.23,7.22-48.94,13.96-12.12,5.2-23.53,11.52-32.6,21.37-3.74,4.06-6.59,8.65-7.39,14.24-1.18,8.3,2.32,14.95,7.68,20.82,6.77,7.4,15.02,12.83,23.98,17.17,13.43,6.52,27.55,11.17,42.05,14.61,26.32,6.24,53.1,8.36,76.24,8.68Zm5.1-338.46c-7.54.56-13.26.72-18.89,1.5-4.66.64-9.27,1.81-13.8,3.08-44.86,12.61-77.66,52.52-81.01,99.07-2.41,33.53,7.91,62.85,31.41,86.97,25.11,25.77,50.73,51.04,76.15,76.52,4.22,4.23,4.23,4.17,8.83-.42,24.26-24.24,48.53-48.48,72.81-72.71,20.74-20.69,33.11-45.22,34.55-74.83.97-19.86-2-38.96-11.42-56.67-21.38-40.22-55.21-60.47-98.63-62.51Z"/>
  <path class="cls-2" d="m262.41,405c0,3.65.15,7.31-.04,10.94-.24,4.65-4.15,7.09-8.23,5.32-2.62-1.14-3.21-3.59-3.26-5.97-.16-7.21-.13-14.42-.02-21.63.05-3.11,2.98-5.79,5.92-5.78,2.38.01,5.43,2.92,5.53,5.63.15,3.82.04,7.65.04,11.48.02,0,.04,0,.06,0Z"/>
  <path class="cls-2" d="m216.75,420.95c-4.7-.6-7.41-4.22-5.62-8.03,3.32-7.07,6.91-14.01,10.56-20.91,1.39-2.62,4.72-3.29,7.5-1.91,2.44,1.21,3.67,4.48,2.35,7.12-3.43,6.82-6.91,13.62-10.63,20.29-.82,1.47-2.74,2.32-4.16,3.45Z"/>
  <path class="cls-2" d="m297.22,420.4c-2.54.08-4.24-1.29-5.34-3.37-3.37-6.37-6.75-12.74-9.95-19.19-1.62-3.27-.52-6.44,2.32-7.73,3.2-1.46,6.05-.46,7.76,2.85,3.33,6.39,6.66,12.79,9.87,19.24,2.01,4.03-.44,8.2-4.67,8.21Z"/>
  <path class="cls-2" d="m257.58,298c-49.71.37-91.22-40.12-91.02-91.04.2-50.53,41.26-90.9,91.72-90.47,50.48.42,91.21,42.84,89.78,93.48-1.32,46.89-39.68,88.1-90.48,88.04Zm.42-11.13c42.88-.24,79.86-35.89,78.84-81.36-.98-44.1-37.77-79.06-82.23-77.69-44.05,1.36-78.23,38.84-76.81,82.26,1.38,42.47,37.97,77.84,80.2,76.79Z"/>
  <path class="cls-1" d="m246.33,221.37c1.36-1.77,2.1-2.62,2.71-3.56,10.74-16.59,21.69-33.06,32.1-49.86,5.78-9.33,18.85-10.3,25.04-.71,2.98,4.62,3.18,9.74.42,14.45-3.68,6.3-7.83,12.32-11.79,18.45-10.62,16.46-21.24,32.92-31.86,49.38-4.71,7.3-10.66,9.93-17.78,7.54-2.04-.69-4.11-1.89-5.66-3.37-9.8-9.34-19.53-18.75-29.14-28.28-4.64-4.61-5.34-11.38-2.21-17,4.22-7.57,14.1-10.01,20.88-4.59,5.26,4.21,9.89,9.22,14.73,13.94.94.92,1.55,2.17,2.56,3.62Zm50.87-45.97c-.08-.56-.04-.89-.18-1.08-.67-.88-1.36-2.4-2.09-2.43-1.23-.05-2.94.51-3.66,1.43-2.02,2.57-3.65,5.46-5.43,8.23-7.33,11.37-14.66,22.75-22,34.12-3.38,5.24-6.71,10.5-10.15,15.69-3.18,4.81-6.27,5.22-10.48,1.37-3.88-3.54-7.64-7.2-11.44-10.83-3.09-2.95-6.1-5.99-9.3-8.81-.68-.6-2.26-.82-3.07-.45-.85.4-1.81,1.76-1.75,2.63.09,1.19.85,2.57,1.74,3.44,8.96,8.78,17.99,17.5,27.05,26.19,2.82,2.7,4.29,2.56,6.37-.62,7.41-11.32,14.76-22.68,22.12-34.03,6.98-10.75,13.96-21.5,20.92-32.26.57-.88.97-1.88,1.33-2.6Z"/>
</svg>