<?xml version="1.0" encoding="UTF-8"?>
<svg id="Layer_1" data-name="Layer 1" xmlns="http://www.w3.org/2000/svg" viewBox="0 0 512 512">
  <defs>
    <style>
      .cls-1 {
        fill: #d71920;
      }

      .cls-2 {
        fill: #222;
      }
    </style>
  </defs>
  <path class="cls-2" d="m397.64,234.27c-3.57,7.96-7.62,11.22-14.17,10.49-2.72-.3-5.56-1.53-7.87-3.05-12.19-7.97-25.34-13.46-39.75-15.64-26.11-3.95-50.27,1.2-72.26,15.98-1.56,1.05-3.04,2.21-4.57,3.3-5.37,3.85-9.22,8.07-10.27,15.46-1.91,13.45-8.68,24.89-18.36,34.5-.61.61-1.17,1.27-1.93,2.12,3.76,1.76,7.4,3.26,10.83,5.13,4.84,2.64,9.64,5.39,14.26,8.39,6.9,4.48,8.74,12.28,4.67,18.67-4.05,6.36-12.02,8.05-18.88,3.58-9.98-6.5-20.48-11.9-32.12-14.53-37.6-8.48-70.41.81-98.18,27.44-10.69,10.25-18.19,22.68-23.14,36.66-3.79,10.68,2.13,19.3,13.46,19.31,37.47.03,74.94,0,112.41.02,7.81,0,13.19,4.09,14.51,10.88,1.16,5.96-1.59,10.86-8.42,15.01H89.18c-.9-.37-1.78-.82-2.71-1.08-8.61-2.47-15.39-7.53-20.73-14.62-4.22-5.59-6.24-12.09-7.74-18.8v-9.29c2.99-13.03,8.34-25.06,15.62-36.23,14.75-22.62,34.8-38.85,59.65-49.25.91-.38,1.84-.75,2.74-1.15.19-.08.32-.29.62-.57-16.7-16.68-24.19-36.65-20.58-60.16,2.95-19.23,12.86-34.38,28.83-45.39,33.67-23.22,83.66-11.08,100.64,29.99,9.33-5.07,18.69-10.16,28.23-15.35-17.33-17.31-24.65-38.43-19.9-63.05,3.15-16.33,11.64-29.78,24.92-39.85,27.83-21.11,66.26-18.12,89.71,6.18,24.47,25.36,27.26,68.77-2.69,97.28,1.22.58,2.37,1.07,3.45,1.66,7.26,3.96,14.74,7.57,21.64,12.08,2.89,1.88,4.54,5.66,6.75,8.58v5.31Zm-214.8-27.91c-22.65-.05-41.16,18.34-41.22,40.98-.06,22.58,18.43,41.18,41.02,41.26,22.55.08,41.15-18.47,41.2-41.06.04-22.66-18.34-41.12-41-41.18Zm137.29-8.6c22.61-.05,41.06-18.59,41.02-41.21-.05-22.61-18.59-41.07-41.2-41.03-22.61.05-41.07,18.59-41.02,41.21.05,22.63,18.58,41.08,41.21,41.03Z"/>
  <path class="cls-1" d="m329.97,428c-6.48-3.25-8.91-8.55-8.7-15.7.29-9.94.07-19.89.07-29.83v-3.59c-2.46,0-4.64,0-6.81,0-9.39,0-18.78.02-28.17,0-8.68-.03-14.69-5.45-14.73-13.21-.04-7.78,5.96-13.29,14.6-13.31,10.38-.03,20.77,0,31.15,0,1.19,0,2.38,0,3.96,0,0-1.44,0-2.62,0-3.8,0-10.5-.03-20.99,0-31.49.03-8.45,5.47-14.38,13.14-14.44,7.83-.06,13.34,5.89,13.37,14.53.04,11.59,0,23.17,0,35.2,1.38,0,2.55,0,3.72,0,9.83,0,19.67.25,29.49-.08,8.23-.28,13.84,2.79,16.54,10.71v5.31c-2.78,8.06-8.6,10.99-16.88,10.67-8.81-.34-17.65-.08-26.48-.08h-6.39c0,11.43-.21,22.45.07,33.46.18,7.13-2.2,12.44-8.7,15.66h-9.29Z"/>
</svg>