<?xml version="1.0" encoding="UTF-8"?>
<svg id="Layer_1" data-name="Layer 1" xmlns="http://www.w3.org/2000/svg" viewBox="0 0 512 512">
  <defs>
    <style>
      .cls-1, .cls-2 {
        fill: #d71920;
      }

      .cls-3 {
        fill: #222;
      }

      .cls-2 {
        stroke: #d71920;
        stroke-miterlimit: 10;
        stroke-width: 4px;
      }
    </style>
  </defs>
  <path class="cls-1" d="m347.31,225.35c-.06-.16-.11-.33-.16-.5-8.23-29.04-27.95-49.08-58.63-59.57-5.92-2.03-11.95-3.22-18.33-4.48-2.38-.47-4.82-.95-7.25-1.49v-24.4h19.36c.26,2.73,1.16,4.81,2.71,6.3,2.71,2.6,6.86,2.7,9.74,2.55,8.23-.41,16.46-.25,23.41-.04,3.53.11,6.07-.66,7.79-2.35,1.75-1.73,2.57-4.37,2.51-8.07-.15-8.35-.13-16.87-.1-25.1.01-4.79.03-9.59.01-14.38-.03-8.43-1.92-10.26-10.65-10.31-4.78-.02-9.56-.01-14.42,0h-5.65c-1.33-7.08-7.12-7.76-11.53-7.6-5.96.2-12.05.15-17.94.11-3.35-.02-6.69-.04-10.04-.03-8.49.06-10.45,2.04-10.46,10.59-.02,17.04-.02,34.08-.01,51.13v22.3c-1.05.14-1.87.26-2.71.38-42.55,6.4-68.86,27.57-80.43,64.7l-1.26,2.93h16.6l.2-1.78c1.22-10.79,9.19-22.59,21.87-32.39,12.9-9.96,29.37-16.8,45.21-18.77,37.34-4.64,74.7,17.98,85.04,51.52l.43,1.41h15.65l-.94-2.67Zm-84.3-106.23v-28.16h18.99v28.16h-18.99Zm34.75,9.06v-29.55h15.59v29.55h-15.59Z"/>
  <path class="cls-2" d="m164.59,224.94s0,0,0,.01h0Z"/>
  <path class="cls-3" d="m443.69,424.01c-1.43-1.75-3.99-2.7-7.22-2.7-.05,0-.1,0-.15,0-3.4.03-6.8.02-10.42.02h-2.63v-22.3c0-14.6-.84-15.6-15.01-16.83-.03-.01-.05-.03-.08-.04v-38.15c0-32.18.01-64.36-.03-96.53-.01-13.67-7.57-21.28-21.27-21.4-11.01-.09-22.7-.08-35.72.03-1.5.03-2.35-.12-2.86-.46l-.51-.34h-15.59l.11.4h-152.4v-.4s-17.17,0-17.17,0l-.38.17c-.6.26-1.17.42-1.55.43-7.96.23-16.05.2-23.89.18-3.28,0-6.55-.02-9.83-.01-16.1.03-23.29,7.2-23.3,23.25,0,28.32,0,56.64,0,84.96v47.94c-.94.07-1.6.11-2.24.12-11.53.23-12.85,1.61-12.85,13.45,0,5.86,0,11.73,0,17.85v7.68c-.71,0-1.39-.01-2.05-.02-2.63-.02-4.9-.04-7.21.05-.7.03-1.48,0-2.3-.02-2.86-.08-6.11-.18-8.25,1.96-1.31,1.31-1.94,3.24-1.87,5.73.06,2.31.76,4.1,2.08,5.31,1.62,1.49,3.76,1.8,5.91,1.8.82,0,1.65-.05,2.44-.09.69-.04,1.37-.08,2-.08,93.1.04,186.2.04,279.3.04h55.86c2.01,0,4.03.03,6.05.06,5.17.08,10.51.17,15.77-.3,3.17-.28,7.74-3.34,8.37-6.38.55-2.64-.31-4.38-1.12-5.36Zm-99.34-133.44v91.23h-20.55v-91.23h20.55Zm15.42-3.78c0-9.5-2.04-11.56-11.51-11.59-3.33,0-6.66,0-9.99.02-6.32.03-12.87.06-19.28-.08-3.54-.07-6.1.71-7.81,2.39-1.75,1.73-2.56,4.26-2.54,7.96.11,22.18.09,44.72.08,66.53,0,8.2-.01,16.39-.01,24.59v5.3h-27.26v-30.97c0-21.39.01-42.78-.01-64.17-.01-9.69-1.84-11.53-11.5-11.56-9.13-.01-18.27-.01-27.4,0-10.45.01-12.02,1.62-12.02,12.31-.02,22.14-.02,44.28-.01,66.42v28.02s-27.26,0-27.26,0v-27.87c0-22.49,0-44.97-.01-67.45,0-9.49-1.95-11.41-11.61-11.42-9.13-.02-18.27-.02-27.4-.01-10.23.01-12.03,1.86-12.04,12.34v94.43h-33.22c0-.11-.01-.21-.02-.32-.1-1.38-.19-2.68-.19-3.96-.03-42.69-.03-85.39-.01-128.07,0-8.26.56-8.84,8.58-8.84,85.81-.01,171.62-.01,257.41,0,7.75,0,8.47.7,8.48,8.3,0,28.61,0,57.21,0,85.81v47.21h-33.44v-27c0-22.77,0-45.55-.01-68.32Zm-171.64,3.72v91.59h-20.44v-91.59h20.44Zm78.22.14v91.36h-20.73v-91.36h20.73Zm141.62,107.07v23.22H103.98v-23.22h304Z"/>
</svg>