<?xml version="1.0" encoding="UTF-8"?>
<svg id="Layer_1" data-name="Layer 1" xmlns="http://www.w3.org/2000/svg" viewBox="0 0 512 512">
  <defs>
    <style>
      .cls-1 {
        fill: #d71920;
      }

      .cls-2 {
        fill: #222;
      }
    </style>
  </defs>
  <path class="cls-2" d="m104.45,249.7c0-35.31-.05-70.61.02-105.92.05-27.44,16.55-50.38,42.09-58.12,5.42-1.64,11.25-2.65,16.9-2.67,51.03-.2,102.06-.23,153.1-.08,31.3.09,57.3,24.55,58.78,55.85.86,18.17.3,36.42.34,54.63.03,13.85.07,27.7-.02,41.54-.05,7.61-4.81,12.74-11.65,12.9-6.18.15-11.35-4.27-12.09-10.44-.19-1.6-.18-3.24-.18-4.86-.01-29.32.03-58.63-.02-87.95-.04-18.33-10.13-32.19-26.7-36.51-3.45-.9-7.14-1.2-10.72-1.21-49.41-.08-98.82-.06-148.23-.05-22.31,0-37.6,15.24-37.63,37.61-.05,45.04-.02,90.07-.02,135.11,0,25.33-.06,50.65.02,75.98.05,17.98,10.65,31.99,27.31,36.06,3.35.82,6.9,1.1,10.37,1.12,23.46.1,46.91,0,70.37.08,9.02.03,14.89,8.59,11.42,16.53-2.03,4.64-5.77,7.32-10.82,7.33-25.33.08-50.68.71-75.98-.19-32.15-1.14-56.42-27.69-56.64-60.46,0-.25,0-.5,0-.75,0-35.18,0-70.36,0-105.54Z"/>
  <path class="cls-2" d="m239.81,166.2c-20.7,0-41.4.06-62.1-.03-9.91-.04-15.81-9.18-11.42-17.45,2.41-4.55,6.43-6.42,11.41-6.45,6.48-.04,12.97-.01,19.45-.01,34.29,0,68.59,0,102.88.01,1.74,0,3.5.02,5.21.29,5.94.97,10.28,6.24,10.08,12.09-.21,6.08-5,11.14-11.17,11.45-4.73.24-9.47.1-14.21.1-16.71,0-33.42,0-50.13,0Z"/>
  <path class="cls-2" d="m239.94,229.84c-20.83,0-41.65.06-62.48-.03-9.01-.04-14.8-7.97-11.83-15.96,1.55-4.16,4.55-6.78,8.96-7.59,1.34-.25,2.72-.35,4.09-.35,40.9-.02,81.81,0,122.71-.04,5.72,0,10.3,1.82,12.83,7.23,3.4,7.28-1.54,15.89-9.57,16.6-3.22.28-6.48.14-9.72.14-18.33,0-36.66,0-54.99,0Z"/>
  <path class="cls-2" d="m205.48,293.51c-9.61,0-19.22.21-28.81-.06-8.68-.25-14.12-8.61-10.88-16.34,1.96-4.7,5.67-7.38,10.73-7.41,19.34-.12,38.67-.17,58.01,0,6.81.06,11.92,5.61,11.84,12.01-.08,6.46-5.15,11.63-12.06,11.77-9.6.19-19.21.05-28.82.05,0,0,0,0,0-.01Z"/>
  <path class="cls-1" d="m391.46,429.19h-115.05c-.17-.09-.33-.22-.51-.25-9.54-1.97-15.6-9.96-15.6-20.62,0-33.14,0-66.28.02-99.41,0-1.67.1-3.38.43-5,1.87-9.34,9.26-15.83,17.99-15.89,2-.01,3.99,0,6.08,0,0-.78,0-1.35,0-1.92,0-3.62-.01-7.25,0-10.87.02-4.62,2.52-7.36,6.71-7.37,1.73,0,3.45,0,5.18,0,3.95.02,6.48,2.74,6.51,7.06.03,3.78,0,7.56,0,11.34,0,.56,0,1.11,0,1.67h61.41c0-.66,0-1.22,0-1.79,0-3.73-.02-7.46,0-11.19.03-4.35,2.53-7.07,6.48-7.1,1.77-.01,3.55-.01,5.32,0,4,.02,6.55,2.77,6.59,7.18.03,3.47,0,6.93,0,10.4,0,.82,0,1.64,0,2.59,2.23,0,4.29-.02,6.34,0,8.2.1,15.45,6.27,17.56,14.93.22.9.42,1.81.63,2.71v105.88c-.09.29-.22.57-.27.87-1.53,8.2-5.98,13.51-13.22,16.05-.85.3-1.74.49-2.61.73Zm3.81-93.76h-122.59c-.03.46-.08.82-.08,1.18,0,24.05-.01,48.11,0,72.16,0,4.23,2.53,6.94,6.46,6.94,36.58.01,73.15.02,109.73-.03,1.15,0,2.41-.33,3.42-.92,2.35-1.38,3.08-3.77,3.07-6.62-.03-23.69-.02-47.37-.02-71.06v-1.66Z"/>
  <path class="cls-1" d="m328.53,374.99c.45-.43.83-.78,1.2-1.14,9.52-9.52,19.04-19.03,28.55-28.57,1.66-1.66,3.54-2.58,5.93-2.12,4.44.85,6.48,5.96,3.81,9.61-.36.5-.81.95-1.25,1.39-11.28,11.29-22.56,22.57-33.84,33.85-3.75,3.75-7.6,3.45-10.73-.81-5.35-7.3-10.71-14.6-16.06-21.9-1.56-2.13-1.83-4.43-.59-6.75,1.18-2.21,3.15-3.32,5.67-3.22,2.1.08,3.69,1.15,4.92,2.83,3.75,5.15,7.53,10.28,11.29,15.41.33.45.69.89,1.1,1.42Z"/>
</svg>